<?xml version="1.0" encoding="UTF-8"?>
<svg id="Layer_2" data-name="Layer 2" xmlns="http://www.w3.org/2000/svg" viewBox="0 0 14.92 14.92">
  <defs>
    <style>
      .cls-1 {
        fill: #010101;
      }
    </style>
  </defs>
  <g id="Layer_1-2" data-name="Layer 1">
    <g>
      <path class="cls-1" d="m11.41,2.66c-.48,0-.87.39-.87.87s.39.88.87.88.88-.39.88-.88-.39-.87-.88-.87Z"/>
      <path class="cls-1" d="m7.52,3.79c-2.03,0-3.68,1.65-3.68,3.68s1.65,3.68,3.68,3.68,3.68-1.65,3.68-3.68-1.65-3.68-3.68-3.68Zm0,6.03c-1.3,0-2.35-1.06-2.35-2.35s1.06-2.35,2.35-2.35,2.35,1.06,2.35,2.35-1.06,2.35-2.35,2.35Z"/>
      <path class="cls-1" d="m10.44,14.92h-5.96c-2.47,0-4.48-2.01-4.48-4.48v-5.96C0,2.01,2.01,0,4.48,0h5.96c2.47,0,4.48,2.01,4.48,4.48v5.96c0,2.47-2.01,4.48-4.48,4.48ZM4.48,1.4c-1.7,0-3.08,1.38-3.08,3.08v5.96c0,1.7,1.38,3.08,3.08,3.08h5.96c1.7,0,3.08-1.38,3.08-3.08v-5.96c0-1.7-1.38-3.08-3.08-3.08h-5.96Z"/>
    </g>
  </g>
</svg>