<?xml version="1.0" encoding="UTF-8"?>
<svg id="Layer_2" data-name="Layer 2" xmlns="http://www.w3.org/2000/svg" viewBox="0 0 18.21 14.99">
  <defs>
    <style>
      .cls-1 {
        fill: #010101;
      }
    </style>
  </defs>
  <g id="Layer_1-2" data-name="Layer 1">
    <path class="cls-1" d="m18.14,1.8c-.58.26-1.22.42-1.84.53.3-.05.73-.59.91-.8.27-.33.49-.71.61-1.11.02-.03.03-.07,0-.1-.04-.02-.07,0-.1,0-.7.37-1.42.64-2.18.84-.06.02-.11,0-.15-.04-.06-.07-.12-.14-.19-.2-.32-.27-.67-.49-1.06-.65C13.62.06,13.06-.03,12.51,0c-.54.03-1.06.19-1.54.43-.48.25-.9.6-1.24,1.01-.35.43-.61.94-.74,1.49-.13.52-.12,1.04-.04,1.57.01.09,0,.1-.08.09-3-.45-5.49-1.52-7.5-3.82-.09-.1-.13-.1-.21,0-.88,1.32-.45,3.45.65,4.5.15.14.3.28.46.41-.06.01-.79-.07-1.45-.41-.09-.06-.13-.02-.14.08,0,.14,0,.27.02.43.17,1.34,1.1,2.58,2.37,3.07.15.06.32.12.48.15-.29.06-.59.11-1.42.04-.1-.02-.14.03-.1.13.62,1.7,1.97,2.21,2.98,2.5.14.02.27.02.41.06,0,.01-.02.01-.02.02-.33.51-1.5.89-2.04,1.08-.98.34-2.06.5-3.09.4-.17-.02-.2-.02-.25,0-.05.03,0,.07.05.11.21.14.43.26.64.38.66.35,1.35.63,2.07.83,3.72,1.03,7.91.27,10.7-2.5,2.19-2.18,2.96-5.18,2.96-8.19,0-.12.14-.18.22-.24.57-.43,1.03-.94,1.46-1.51.1-.13.1-.24.1-.29v-.02s0-.03-.07,0Z"/>
  </g>
</svg>